#!OML:ASF F:\VICON\USERDATA\INSTALL\rory3\rory3.ASF
:FULLY-SPECIFIED
:DEGREES
49
root 0.431975 17.2609 -10.4298 5.72502 2.33252 3.69495
lowerback 18.0336 0.437936 -3.59823
upperback -0.385985 -0.249695 -0.61912
thorax -10.5742 0.0575546 1.43643
lowerneck -21.0456 -4.72333 -2.10834
upperneck 12.1284 -6.69683 5.33495
head 7.41277 -2.78279 1.26947
rclavicle -3.8763e-015 2.15681e-014
rhumerus -54.3484 17.2299 -105.572
rradius 103.656
rwrist -10.659
rhand -31.7122 49.6732
rfingers 7.12502
rthumb -4.97089 19.7515
lclavicle -3.8763e-015 2.15681e-014
lhumerus -39.2039 -6.9207 98.9392
lradius 113.329
lwrist 50.6684
lhand -15.7845 8.8611
lfingers 7.12502
lthumb 10.408 38.5835
rfemur -46.6918 -2.70734 17.5807
rtibia 109.455
rfoot 11.9345 -6.32731
rtoes 14.7539
lfemur -8.08022 0.178065 -31.053
ltibia 38.9723
lfoot -22.0312 -0.251745
ltoes -7.36781
50
root 0.442447 17.3564 -9.94324 5.89697 1.87655 3.61648
lowerback 17.8454 0.278842 -3.67013
upperback -0.647374 -0.472927 -0.602395
thorax -10.7475 -0.0374186 1.55419
lowerneck -20.1694 -4.54947 -1.88091
upperneck 12.0458 -6.49993 5.15852
head 7.21954 -2.71346 1.21586
rclavicle 1.83876e-015 8.94531e-015
rhumerus -55.6817 16.7168 -105.56
rradius 104.475
rwrist -10.6871
rhand -31.7786 48.1341
rfingers 7.12502
rthumb -5.03493 18.2139
lclavicle 1.83876e-015 8.94531e-015
lhumerus -38.754 -7.20467 98.6739
lradius 114.452
lwrist 51.8733
lhand -16.0946 8.77094
lfingers 7.12502
lthumb 10.1089 38.5081
rfemur -48.5019 -2.23676 17.8907
rtibia 107.288
rfoot 11.1945 -5.17673
rtoes 9.32258
lfemur -5.96383 0.0396905 -30.9675
ltibia 37.5409
lfoot -20.1266 -1.04697
ltoes -11.1492
51
root 0.450412 17.4805 -9.44714 6.17268 1.45412 3.41985
lowerback 17.5873 0.0910766 -3.70429
upperback -0.972828 -0.711304 -0.460759
thorax -10.9495 -0.135514 1.79093
lowerneck -19.2042 -4.36656 -1.9051
upperneck 12.0076 -6.23543 5.05506
head 7.03462 -2.61644 1.23463
rclavicle -4.44781e-015 3.18055e-015
rhumerus -56.9456 16.363 -105.391
rradius 105.303
rwrist -11.1459
rhand -31.0973 50.3697
rfingers 7.12502
rthumb -4.37708 20.4349
lclavicle -4.44781e-015 3.18055e-015
lhumerus -38.5124 -7.40421 98.4364
lradius 115.542
lwrist 53.0394
lhand -16.2305 8.08857
lfingers 7.12502
lthumb 9.97775 37.8321
rfemur -50.093 -1.60201 18.3633
rtibia 104.566
rfoot 10.1897 -4.03482
rtoes 6.25969
lfemur -4.02935 -0.10632 -30.7232
ltibia 36.1023
lfoot -18.0831 -2.22741
ltoes -16.1439
52
root 0.461608 17.5961 -8.93732 6.3986 1.41836 2.99175
lowerback 17.2913 -0.341109 -3.48107
upperback -1.34034 -1.19397 -0.0866412
thorax -11.1591 -0.354119 2.20087
lowerneck -18.1245 -4.14477 -2.13211
upperneck 11.9648 -5.85521 4.8705
head 6.82745 -2.48161 1.27346
rclavicle -2.32827e-014 -4.77083e-015
rhumerus -58.5431 16.388 -105.202
rradius 106.179
rwrist -11.7352
rhand -30.7696 51.3456
rfingers 7.12502
rthumb -4.06067 21.4046
lclavicle -2.32827e-014 -4.77083e-015
lhumerus -38.6505 -7.18317 98.3385
lradius 116.795
lwrist 53.9378
lhand -15.623 7.74202
lfingers 7.12502
lthumb 10.5638 37.4565
rfemur -51.2125 -1.12677 19.0969
rtibia 101.474
rfoot 9.01372 -2.88416
rtoes 4.06227
lfemur -2.0516 -0.51473 -30.1912
ltibia 34.5123
lfoot -15.4711 -3.6819
ltoes -20.8573
53
root 0.48247 17.6967 -8.41542 6.82781 1.82476 2.64314
lowerback 16.5699 -0.855647 -2.87159
upperback -1.69168 -1.7142 0.0933006
thorax -11.1135 -0.62811 2.17468
lowerneck -17.3639 -3.96067 -1.96268
upperneck 12.083 -5.5964 4.46714
head 6.71139 -2.39583 1.15687
rclavicle 1.74434e-014 2.88238e-015
rhumerus -60.1451 15.7118 -104.86
rradius 107.041
rwrist -11.9978
rhand -30.0832 51.4029
rfingers 7.12502
rthumb -3.39777 21.4503
lclavicle 1.74434e-014 2.88238e-015
lhumerus -38.9089 -7.6237 98.1802
lradius 118.014
lwrist 54.6548
lhand -15.253 7.33055
lfingers 7.12502
lthumb 10.9207 37.0266
rfemur -52.3279 -1.06961 19.7057
rtibia 98.1253
rfoot 8.04257 -1.61031
rtoes 2.10326
lfemur -0.221889 -1.20681 -29.6731
ltibia 32.8525
lfoot -12.0583 -5.5493
ltoes -23.0113
54
root 0.501981 17.8514 -7.87853 7.07942 1.72255 2.34307
lowerback 15.9365 -1.13071 -2.43205
upperback -1.86864 -1.96961 0.163432
thorax -10.9407 -0.77636 2.05059
lowerneck -16.8149 -3.77822 -1.74237
upperneck 12.1404 -5.37881 4.27112
head 6.61895 -2.30557 1.09069
rclavicle -1.44367e-014 7.65321e-015
rhumerus -61.2206 14.9546 -104.567
rradius 107.431
rwrist -12.0916
rhand -29.9059 50.8108
rfingers 7.12502
rthumb -3.2266 20.8555
lclavicle -1.44367e-014 7.65321e-015
lhumerus -38.9338 -8.29692 97.8683
lradius 119.056
lwrist 55.1061
lhand -15.2882 7.46897
lfingers 7.12502
lthumb 10.8868 37.1668
rfemur -52.9027 -0.519845 20.1419
rtibia 94.1391
rfoot 7.11642 -0.508778
rtoes 1.288
lfemur 1.83702 -1.43163 -29.22
ltibia 31.1267
lfoot -8.01961 -7.7537
ltoes -23.11
55
root 0.510674 17.9886 -7.35844 7.19471 0.84348 1.80746
lowerback 15.6594 -1.1513 -2.17905
upperback -1.7707 -1.91339 0.40191
thorax -10.672 -0.763075 2.14259
lowerneck -17.7289 -3.67941 -1.71508
upperneck 12.7596 -5.23512 4.05643
head 6.96097 -2.23097 1.01556
rclavicle 1.61761e-014 2.98177e-016
rhumerus -61.5295 14.7182 -104.157
rradius 107.577
rwrist -11.9607
rhand -30.5177 50.3599
rfingers 7.12502
rthumb -3.81742 20.4144
lclavicle 1.61761e-014 2.98177e-016
lhumerus -38.3865 -8.85104 97.5259
lradius 119.841
lwrist 54.8057
lhand -15.6538 7.59473
lfingers 7.12502
lthumb 10.5341 37.3108
rfemur -53.3406 0.891023 20.7594
rtibia 89.9031
rfoot 6.15114 0.247489
rtoes 1.13296
lfemur 3.71094 -1.03712 -28.6477
ltibia 29.3134
lfoot -3.26533 -9.85044
ltoes -22.5567
56
root 0.520238 18.0977 -6.84057 7.26416 -0.0365822 1.28695
lowerback 15.3743 -1.15728 -1.88246
upperback -1.07514 -1.82293 0.66697
thorax -9.73997 -0.751717 2.21587
lowerneck -21.3279 -3.67288 -1.61442
upperneck 14.1246 -5.21511 3.71353
head 8.0023 -2.17633 0.830122
rclavicle 2.98177e-016 1.23246e-014
rhumerus -60.5197 14.7766 -103.273
rradius 107.668
rwrist -11.9732
rhand -30.7758 50.7159
rfingers 7.12502
rthumb -4.06668 20.7749
lclavicle 2.98177e-016 1.23246e-014
lhumerus -36.3051 -9.56845 96.9147
lradius 120.209
lwrist 54.2176
lhand -16.0341 7.63963
lfingers 7.12502
lthumb 10.1672 37.374
rfemur -53.514 2.11314 21.3636
rtibia 85.493
rfoot 5.29633 1.1459
rtoes 1.30069
lfemur 5.47742 -0.496645 -28.114
ltibia 27.2937
lfoot 1.47881 -11.7536
ltoes -23.3214
57
root 0.534799 18.2018 -6.30114 7.1448 -0.954133 1.18706
lowerback 15.0799 -1.1149 -1.95229
upperback -1.20051 -1.76659 0.761759
thorax -9.70688 -0.718333 2.3384
lowerneck -20.7365 -3.57993 -1.70929
upperneck 14.1441 -5.03777 3.55713
head 7.90203 -2.12185 0.824335
rclavicle -2.53699e-014 -5.56597e-015
rhumerus -61.6277 14.1833 -102.866
rradius 107.974
rwrist -12.0314
rhand -30.5598 50.8664
rfingers 7.12502
rthumb -3.85802 20.9215
lclavicle -2.53699e-014 -5.56597e-015
lhumerus -36.2376 -10.1386 96.6655
lradius 120.654
lwrist 53.4765
lhand -16.2089 7.72573
lfingers 7.12502
lthumb 9.99858 37.4682
rfemur -53.1963 3.17007 21.4376
rtibia 80.973
rfoot 4.74594 1.95888
rtoes 1.65042
lfemur 7.44832 -0.185233 -28.1271
ltibia 25.4546
lfoot 8.44155 -12.9141
ltoes -27.1824
58
root 0.544135 18.3015 -5.75971 6.94477 -1.77501 0.938297
lowerback 14.9732 -1.08774 -1.97011
upperback -1.28989 -1.71618 0.93354
thorax -9.74096 -0.686819 2.52158
lowerneck -20.0752 -3.44388 -1.71338
upperneck 13.9396 -4.81131 3.34637
head 7.71012 -2.04769 0.794
rclavicle 9.0944e-015 7.55382e-015
rhumerus -62.4539 13.6625 -102.398
rradius 108.085
rwrist -11.9382
rhand -30.4123 50.751
rfingers 7.12502
rthumb -3.71563 20.8036
lclavicle 9.0944e-015 7.55382e-015
lhumerus -36.2303 -10.5959 96.4271
lradius 120.985
lwrist 52.3786
lhand -15.9407 7.10125
lfingers 7.12502
lthumb 10.2573 36.8311
rfemur -52.5958 4.1746 21.7252
rtibia 76.2706
rfoot 4.60495 2.42027
rtoes -0.858908
lfemur 9.33434 -0.0398793 -27.941
ltibia 23.776
lfoot 13.8144 -13.5339
ltoes -29.7371
59
root 0.550793 18.3913 -5.23201 6.98488 -2.37014 0.435093
lowerback 14.8492 -1.17409 -1.66741
upperback -1.40528 -1.7556 1.13411
thorax -9.79693 -0.713821 2.57478
lowerneck -19.911 -3.31859 -1.82105
upperneck 14.2416 -4.63458 3.40035
head 7.78246 -1.96251 0.852012
rclavicle -1.11816e-015 4.77083e-015
rhumerus -63.0701 13.2262 -102.017
rradius 108.194
rwrist -11.7562
rhand -30.3377 50.6719
rfingers 7.12502
rthumb -3.64357 20.7233
lclavicle -1.11816e-015 4.77083e-015
lhumerus -36.414 -10.8963 96.0508
lradius 121.27
lwrist 51.3065
lhand -15.4568 6.70728
lfingers 7.12502
lthumb 10.7242 36.4136
rfemur -52.092 5.0853 22.2688
rtibia 71.3202
rfoot 4.6809 2.64069
rtoes -3.69442
lfemur 10.8604 -0.205536 -27.4656
ltibia 22.2849
lfoot 18.1333 -13.2748
ltoes -25.0814
60
root 0.564457 18.4755 -4.69879 7.05993 -2.88181 0.0211794
lowerback 14.5228 -1.25213 -1.22025
upperback -1.44648 -1.76969 1.20123
thorax -9.6644 -0.744991 2.38682
lowerneck -19.9944 -3.26606 -1.77722
upperneck 14.6301 -4.59636 3.43426
head 7.92535 -1.93251 0.858255
rclavicle 9.61621e-015 7.55382e-015
rhumerus -63.5469 12.5955 -101.63
rradius 108.273
rwrist -11.6144
rhand -29.9935 50.5387
rfingers 7.12502
rthumb -3.31121 20.5847
lclavicle 9.61621e-015 7.55382e-015
lhumerus -36.6219 -11.387 95.6271
lradius 121.635
lwrist 50.4596
lhand -15.7847 7.39979
lfingers 7.12502
lthumb 10.4078 37.1222
rfemur -51.4484 5.77728 22.6832
rtibia 66.2505
rfoot 4.44922 2.88134
rtoes -5.48188
lfemur 12.2606 -0.653075 -27.228
ltibia 21.3168
lfoot 21.57 -13.2422
ltoes -17.4869
61
root 0.577285 18.5454 -4.16366 7.04263 -3.41381 -0.263198
lowerback 14.2471 -1.2714 -0.981986
upperback -1.49671 -1.74289 1.29682
thorax -9.56594 -0.743573 2.3409
lowerneck -19.8636 -3.21964 -1.66144
upperneck 14.7065 -4.53777 3.26423
head 7.91979 -1.91627 0.791748
rclavicle 2.4376e-014 -2.38542e-014
rhumerus -64.1515 11.944 -101.14
rradius 108.412
rwrist -11.6049
rhand -29.1436 50.2588
rfingers 7.12502
rthumb -2.49037 20.2936
lclavicle 2.4376e-014 -2.38542e-014
lhumerus -36.7673 -11.8776 95.4081
lradius 121.761
lwrist 49.4696
lhand -15.8872 7.52513
lfingers 7.12502
lthumb 10.309 37.2525
rfemur -50.6201 6.43617 23.0082
rtibia 61.1346
rfoot 4.57846 3.00467
rtoes -7.40807
lfemur 13.5278 -1.18273 -27.2492
ltibia 20.9599
lfoot 24.9444 -14.1649
ltoes -11.0416
